<svg width="20" height="21" viewBox="0 0 20 21" fill="none" xmlns="http://www.w3.org/2000/svg">
<path d="M18.3848 1.73854C17.2132 0.56697 15.3137 0.56697 14.1422 1.73854L12.0203 3.86039L11.3131 3.15319C10.9226 2.76266 10.2894 2.76266 9.89889 3.15319C9.50837 3.54371 9.50837 4.17688 9.89889 4.5674L15.5557 10.2243C15.9463 10.6148 16.5794 10.6148 16.97 10.2243C17.3605 9.83373 17.3605 9.20057 16.97 8.81004L16.2629 8.10303L18.3848 5.98118C19.5564 4.80961 19.5564 2.91012 18.3848 1.73854Z" fill="#262626"/>
<path fill-rule="evenodd" clip-rule="evenodd" d="M9.92973 5.95102L2.15156 13.7292C1.22792 14.6528 1.03245 16.0289 1.56516 17.144L0 18.7092L1.41421 20.1234L2.97937 18.5582C4.0945 19.0909 5.47056 18.8955 6.3942 17.9718L14.1724 10.1937L9.92973 5.95102ZM11.3439 10.1937L9.92973 8.77945L3.56577 15.1434C3.17525 15.5339 3.17525 16.1671 3.56577 16.5576C3.95629 16.9482 4.58946 16.9482 4.97998 16.5576L11.3439 10.1937Z" fill="#262626"/>
</svg>
