<svg width="70" height="70" viewBox="0 0 70 70" fill="none" xmlns="http://www.w3.org/2000/svg">
<g clip-path="url(#clip0_1_3354)">
<path d="M69.5256 0.983549C69.2796 0.388598 68.6993 0.000515359 68.0555 0.000366211C6.32818 0.000366211 0 29.4771 0 40.4798C0 54.7534 10.8691 64.3434 27.0454 64.3434C47.4758 64.3434 51.7555 44.9025 54.0527 34.4566C56.2859 23.8236 61.3281 10.2256 69.1786 2.71441C69.6331 2.2604 69.77 1.5776 69.5256 0.983549Z" fill="#067D7B"/>
<path d="M69.8805 0.983182C69.6346 0.388232 69.0543 0.000149148 68.4105 0C6.68316 0 0.00134277 25.5882 0.00134277 36.5909C0.00134277 50.8645 10.8705 60.4545 27.0468 60.4545C47.4772 60.4545 51.7568 41.0136 54.054 30.5677C56.2872 19.9346 61.6831 10.2253 69.5336 2.71404C69.9881 2.26004 70.125 1.57724 69.8805 0.983182Z" fill="#E3F2F2"/>
<path d="M1.59194 69.9998C0.713307 69.9998 0.000976562 69.2875 0.000976562 68.4089C0.000976562 58.9493 16.4032 28.5979 42.2619 16.068C43.0526 15.6849 44.0042 16.0153 44.3874 16.8061C44.7704 17.5969 44.44 18.5484 43.6492 18.9316C17.536 31.5857 3.18275 60.9731 3.18275 68.409C3.18275 69.2876 2.47057 69.9998 1.59194 69.9998Z" fill="#067D7B"/>
</g>
<defs>
<clipPath id="clip0_1_3354">
<rect width="70" height="70" fill="white"/>
</clipPath>
</defs>
</svg>
