<svg width="19" height="20" viewBox="0 0 19 20" fill="none" xmlns="http://www.w3.org/2000/svg">
<path fill-rule="evenodd" clip-rule="evenodd" d="M13.0076 14.8442C9.86909 17.2879 5.32842 17.0672 2.44324 14.182C-0.680952 11.0578 -0.680951 5.99249 2.44324 2.86829C5.56744 -0.255902 10.6328 -0.255902 13.757 2.86829C16.6421 5.75347 16.8629 10.2941 14.4191 13.4326C14.4344 13.4462 14.4494 13.4603 14.4641 13.4749L18.7067 17.7175C19.0972 18.1081 19.0972 18.7412 18.7067 19.1317C18.3162 19.5223 17.683 19.5223 17.2925 19.1317L13.0498 14.8891C13.0352 14.8745 13.0211 14.8595 13.0076 14.8442ZM3.85746 12.7678C6.2006 15.1109 9.99959 15.1109 12.3427 12.7678C14.6859 10.4246 14.6859 6.62565 12.3427 4.28251C9.99959 1.93936 6.2006 1.93936 3.85746 4.28251C1.51431 6.62565 1.51431 10.4246 3.85746 12.7678Z" fill="#141414"/>
</svg>
