<svg width="24" height="24" viewBox="0 0 24 24" fill="none" xmlns="http://www.w3.org/2000/svg">
<path fill-rule="evenodd" clip-rule="evenodd" d="M18.2079 2H22.9995V4H19.7811L17.0123 16.6776H16.9995V17H3.99951V16.7519L1.80629 7.09095L1.46875 6H17.3443L17.9147 3.38852L18.2079 2ZM4.01266 8H16.9075L15.3787 15H5.60173L4.01266 8Z" fill="white"/>
<path d="M13.9995 22C12.8949 22 11.9995 21.1046 11.9995 20C11.9995 18.8954 12.8949 18 13.9995 18C15.1041 18 15.9995 18.8954 15.9995 20C15.9995 21.1046 15.1041 22 13.9995 22Z" fill="white"/>
<path d="M4.99951 20C4.99951 21.1046 5.89494 22 6.99951 22C8.10408 22 8.99951 21.1046 8.99951 20C8.99951 18.8954 8.10408 18 6.99951 18C5.89494 18 4.99951 18.8954 4.99951 20Z" fill="white"/>
</svg>
