<svg width="16" height="20" viewBox="0 0 16 20" fill="none" xmlns="http://www.w3.org/2000/svg">
<path fill-rule="evenodd" clip-rule="evenodd" d="M8.74008 14.3185C8.03496 15.1126 7.08077 15.6806 6 15.9V19C6 19.5523 5.55228 20 5 20C4.44772 20 4 19.5523 4 19V15.9C1.71776 15.4367 0 13.419 0 11V5C0 2.23858 2.23858 0 5 0C7.6087 0 9.75079 1.99781 9.97975 4.54693C10.5726 4.1993 11.2631 4 12 4C14.2091 4 16 5.79086 16 8V12C16 13.8638 14.7252 15.4299 13 15.874V19C13 19.5523 12.5523 20 12 20C11.4477 20 11 19.5523 11 19V15.874C10.0747 15.6358 9.27905 15.075 8.74008 14.3185ZM8 5V11C8 12.3062 7.16519 13.4175 6 13.8293V11C6 10.4477 5.55228 10 5 10C4.44772 10 4 10.4477 4 11V13.8293C2.83481 13.4175 2 12.3062 2 11V5C2 3.34315 3.34315 2 5 2C6.65685 2 8 3.34315 8 5ZM13 13.7324V11C13 10.4477 12.5523 10 12 10C11.4477 10 11 10.4477 11 11V13.7324C10.4022 13.3866 10 12.7403 10 12V8C10 6.89543 10.8954 6 12 6C13.1046 6 14 6.89543 14 8V12C14 12.7403 13.5978 13.3866 13 13.7324Z" fill="#262626"/>
</svg>
