<svg width="34" height="36" viewBox="0 0 34 36" fill="none" xmlns="http://www.w3.org/2000/svg">
<path d="M16.7702 12.3991C13.69 12.3991 11.1764 15.0262 11.1764 18.2453C11.1764 21.4644 13.69 24.0914 16.7702 24.0914C19.8504 24.0914 22.3641 21.4644 22.3641 18.2453C22.3641 15.0262 19.8504 12.3991 16.7702 12.3991ZM33.5476 18.2453C33.5476 15.8244 33.5686 13.4254 33.4385 11.0089C33.3084 8.20203 32.6957 5.71096 30.7318 3.65846C28.7636 1.60157 26.3843 0.965644 23.6985 0.829688C21.3821 0.693731 19.0867 0.71566 16.7744 0.71566C14.458 0.71566 12.1625 0.693731 9.85029 0.829688C7.16457 0.965644 4.78099 1.60595 2.81706 3.65846C0.848929 5.71535 0.240445 8.20203 0.110356 11.0089C-0.019734 13.4298 0.00124821 15.8287 0.00124821 18.2453C0.00124821 20.6618 -0.019734 23.0651 0.110356 25.4817C0.240445 28.2885 0.853125 30.7796 2.81706 32.8321C4.78519 34.889 7.16457 35.5249 9.85029 35.6608C12.1667 35.7968 14.4622 35.7749 16.7744 35.7749C19.0909 35.7749 21.3863 35.7968 23.6985 35.6608C26.3843 35.5249 28.7678 34.8846 30.7318 32.8321C32.6999 30.7752 33.3084 28.2885 33.4385 25.4817C33.5728 23.0651 33.5476 20.6662 33.5476 18.2453ZM16.7702 27.2403C12.0073 27.2403 8.16332 23.223 8.16332 18.2453C8.16332 13.2675 12.0073 9.25021 16.7702 9.25021C21.5332 9.25021 25.3771 13.2675 25.3771 18.2453C25.3771 23.223 21.5332 27.2403 16.7702 27.2403ZM25.7296 10.9826C24.6176 10.9826 23.7195 10.044 23.7195 8.88181C23.7195 7.71961 24.6176 6.78107 25.7296 6.78107C26.8417 6.78107 27.7397 7.71961 27.7397 8.88181C27.74 9.15779 27.6883 9.43111 27.5874 9.68614C27.4865 9.94118 27.3384 10.1729 27.1517 10.368C26.965 10.5632 26.7433 10.7179 26.4992 10.8234C26.2552 10.9288 25.9937 10.9829 25.7296 10.9826Z" fill="#067D7B"/>
</svg>
