<svg width="40" height="40" viewBox="0 0 40 40" fill="none" xmlns="http://www.w3.org/2000/svg">
<path d="M31.058 31.5182L31.0578 31.5173C30.7097 29.9131 29.8604 29.1145 28.7112 28.0339C28.6176 27.946 28.5221 27.8561 28.4247 27.7639C27.1066 26.5151 25.6723 24.9765 25.0722 21.8706C24.5868 19.3664 23.3638 18.3149 22.361 17.8386C21.8356 17.589 21.3341 17.4814 20.9641 17.437C20.7803 17.415 20.633 17.409 20.5368 17.4082C20.4888 17.4078 20.454 17.4087 20.4343 17.4094L20.4171 17.4102L20.4165 17.4102M31.058 31.5182L20.4165 17.4102M31.058 31.5182C31.2454 32.3784 31.137 32.981 30.925 33.4093C30.7089 33.8461 30.3374 34.1976 29.8417 34.4633C28.8061 35.0184 27.437 35.0864 26.6753 34.8791C25.572 34.5787 23.9654 34.4159 22.6989 34.3254C22.0523 34.2792 21.4702 34.2504 21.0497 34.2331C20.8393 34.2245 20.6689 34.2187 20.5505 34.2151C20.4913 34.2132 20.445 34.212 20.4133 34.2111L20.3768 34.2102L20.367 34.21L20.3643 34.2099L20.3635 34.2099L20.3632 34.2099C20.3631 34.2099 20.363 34.2099 20.3408 35.2096M31.058 31.5182L20.273 17.4103C20.274 17.4103 20.274 17.4103 20.2729 17.4102L20.2723 17.4102L20.2549 17.4094C20.2351 17.4087 20.2002 17.4078 20.152 17.4082C20.0554 17.409 19.9075 17.415 19.7231 17.4371C19.3518 17.4815 18.8488 17.5892 18.3218 17.839C17.316 18.3157 16.091 19.3674 15.6058 21.8706L15.6057 21.8712C15.0014 24.9777 13.5628 26.5163 12.242 27.7647C12.1451 27.8563 12.05 27.9456 11.9568 28.0329C10.8042 29.1144 9.95321 29.9128 9.60503 31.5173C9.41845 32.3772 9.52745 32.9801 9.74015 33.409C9.95707 33.8465 10.3297 34.1985 10.8262 34.4646C11.8635 35.0204 13.233 35.088 13.9934 34.8795L13.9951 34.8791C15.0985 34.5787 16.7081 34.4159 17.9772 34.3254C18.6253 34.2792 19.2088 34.2504 19.6303 34.2331C19.8412 34.2245 20.0121 34.2187 20.1308 34.2151C20.1901 34.2132 20.2365 34.212 20.2683 34.2111L20.3049 34.2102L20.3147 34.21L20.3174 34.2099L20.3182 34.2099L20.3185 34.2099C20.3186 34.2099 20.3186 34.2099 20.3408 35.2096M20.4165 17.4102C20.4155 17.4103 20.4154 17.4103 20.4164 17.4102L20.4165 17.4102ZM20.3408 35.2096L20.3186 34.2099L20.3408 34.2094L20.363 34.2099L20.3408 35.2096ZM13.1687 5.77752L13.1687 5.77752C11.4402 6.27742 10.2183 8.64905 11.0234 11.4382M13.1687 5.77752L15.8532 15.0858C14.1229 15.5855 11.8291 14.2291 11.0234 11.4382M13.1687 5.77752C14.8952 5.27817 17.1925 6.63448 17.9981 9.42525C18.8035 12.2153 17.5844 14.5859 15.8532 15.0858L13.1687 5.77752ZM11.0234 11.4382L10.0626 11.7156L11.0234 11.4382ZM29.6395 11.4344L29.6394 11.4347C28.8335 14.2295 26.5396 15.5854 24.8097 15.0858C23.0786 14.5859 21.8594 12.2153 22.6648 9.42525L22.6649 9.42495C23.4707 6.63008 25.7646 5.2742 27.4946 5.77381L27.4946 5.77381C29.2257 6.2737 30.4449 8.64434 29.6395 11.4344ZM34.3417 15.8434L34.3418 15.8434C36.0085 16.5239 36.9686 19.0068 35.8706 21.6991C34.7734 24.3894 32.3469 25.4916 30.6786 24.8132L30.6786 24.8131C29.0142 24.1363 28.0525 21.6514 29.151 18.9579C30.2489 16.2661 32.6752 15.1629 34.3417 15.8434ZM9.98673 24.8137L10.3647 25.7395L9.98673 24.8137C8.3202 25.4941 5.89384 24.391 4.79607 21.6992L4.7959 21.6987C3.69813 19.0105 4.65821 16.5239 6.32484 15.8434L6.32486 15.8434C7.99078 15.1632 10.4176 16.269 11.5157 18.9583C12.6135 21.6466 11.6534 24.1332 9.98673 24.8137Z" stroke="#067D7B" stroke-width="2"/>
</svg>
