<svg width="40" height="60" viewBox="0 0 40 60" fill="none" xmlns="http://www.w3.org/2000/svg">
<path d="M40 15.8066C39.9999 7.0909 33.2709 0 24.9999 0C16.7289 0 10 7.0909 10 15.8067C10 23.4561 15.2168 33.0516 22.3544 35.0002C20.8882 38.4394 21.3335 41.1961 22.2462 43.629L16.3332 46.7445L9.99758 44.2407C9.99814 44.2076 9.99992 44.1748 9.99992 44.1416C9.99992 41.2363 7.75688 38.8727 4.99996 38.8727C2.24292 38.8727 0 41.2364 0 44.1416C0 47.0469 2.24304 49.4105 4.99996 49.4105C6.53372 49.4105 7.90757 48.6783 8.82557 47.5291L12.2646 48.888L8.46738 50.8887C7.56772 49.9745 6.34545 49.4105 4.99996 49.4105C2.24292 49.4105 0 51.7741 0 54.6793C0 57.5845 2.24304 59.9482 4.99996 59.9482C7.75699 59.9482 9.99992 57.5845 9.99992 54.6793C9.99992 54.4591 9.98546 54.2425 9.96044 54.0293L16.5237 50.5711L25.1316 53.9727C24.9194 55.2376 24.4295 56.6404 23.5528 58.2572L26.447 60C27.39 58.2613 27.9701 56.6757 28.2845 55.2185L31.0815 56.3238L32.2519 53.0348L28.5548 51.5739C28.3788 49.1074 27.4939 47.0593 26.6408 45.2407L32.412 42.1998L30.9214 39.058L25.239 42.052C24.5242 40.0137 24.4287 38.0393 25.9503 35.3123C33.9103 34.5401 40 24.1018 40 15.8066ZM4.99996 45.8979C4.08095 45.8979 3.33331 45.11 3.33331 44.1416C3.33331 43.1732 4.08095 42.3853 4.99996 42.3853C5.91897 42.3853 6.66661 43.1732 6.66661 44.1416C6.66661 45.11 5.91897 45.8979 4.99996 45.8979ZM4.99996 56.4356C4.08095 56.4356 3.33331 55.6478 3.33331 54.6793C3.33331 53.7109 4.08095 52.923 4.99996 52.923C5.91897 52.923 6.66661 53.7109 6.66661 54.6793C6.66661 55.6478 5.91897 56.4356 4.99996 56.4356ZM24.9571 50.1523L20.5923 48.4275L23.6592 46.8116C24.183 47.9277 24.6623 49.0088 24.9571 50.1523ZM13.3333 15.8067C13.3333 9.02777 18.5669 3.5127 24.9999 3.5127C31.4329 3.5127 36.6665 9.02777 36.6665 15.8067C36.6665 22.8775 31.1735 31.8476 24.9999 31.8476C18.6939 31.8475 13.3333 22.6854 13.3333 15.8067Z" fill="#067D7B"/>
</svg>
