<svg width="40" height="40" viewBox="0 0 40 40" fill="none" xmlns="http://www.w3.org/2000/svg">
<path d="M8.6553 31.5872L8.6553 31.5872L10.3398 27.376L10.3398 27.376C11.6853 24.0152 13.2952 20.7665 15.1542 17.6602C14.3854 16.3609 13.5649 15.0761 12.7118 13.8352L12.7118 13.8352L12.4319 13.428C11.5625 12.1671 11.0979 10.6712 11.0999 9.13958L11.0999 9.13945C11.1034 7.50258 11.6343 5.91042 12.6138 4.59893L12.6139 4.59869L12.8433 4.29288C13.0711 3.98883 13.3363 3.71465 13.6325 3.47679L13.6326 3.47675C15.2097 2.21189 17.1428 1.47177 19.1614 1.35996C21.18 1.24815 23.1831 1.77025 24.8902 2.85319L24.8908 2.85352C25.6149 3.31707 26.2486 3.90838 26.7612 4.59862C27.7407 5.91027 28.2715 7.50262 28.2749 9.13962V9.13974C28.2769 10.6713 27.8123 12.1671 26.943 13.428L8.6553 31.5872ZM8.6553 31.5872C8.60155 31.7216 8.58651 31.8684 8.61188 32.0109C8.63725 32.1534 8.70203 32.2859 8.79886 32.3935C8.79886 32.3935 8.79886 32.3935 8.79887 32.3935L14.4239 38.6435C14.5145 38.7442 14.6301 38.8195 14.7589 38.8616C14.8877 38.9038 15.0254 38.9114 15.1581 38.8837C15.2908 38.8561 15.4139 38.7941 15.5152 38.7039C15.6164 38.6138 15.6923 38.4987 15.7352 38.3701L18.3462 30.5367L18.2039 30.4892L18.3462 30.5367C18.7578 29.302 19.2048 28.0814 19.6873 26.8749C20.1702 28.0832 20.6193 29.309 21.0284 30.5367L21.1707 30.4892L21.0284 30.5367L23.6396 38.3701C23.6825 38.4987 23.7583 38.6138 23.8596 38.7039C23.9608 38.7941 24.084 38.8561 24.2167 38.8837C24.3494 38.9114 24.487 38.9038 24.6159 38.8616C24.7447 38.8195 24.8602 38.7442 24.9509 38.6435L30.5759 32.3935C30.6727 32.2859 30.7375 32.1534 30.7629 32.0109C30.7883 31.8684 30.7732 31.7216 30.7195 31.5872L30.5802 31.6429L30.7195 31.5872L29.0351 27.3763C27.7799 24.2385 26.074 20.8007 24.2185 17.664C24.9889 16.3618 25.8037 15.0856 26.663 13.8354L26.9429 13.4282L8.6553 31.5872ZM18.7213 12.2952C17.7959 13.5544 16.908 14.8536 16.0699 16.1751C15.4059 15.0833 14.7094 14.0049 13.9891 12.9572C13.9891 12.9572 13.9891 12.9572 13.9891 12.9572L13.7091 12.5499L13.709 12.5497C13.0177 11.5471 12.6483 10.3578 12.6499 9.13997C12.6525 7.89602 13.0379 6.68451 13.7517 5.66909L16.089 8.7855L16.0892 8.78581L16.0892 8.78582L16.0908 8.78798L18.7213 12.2952ZM16.7227 18.0613L16.7231 18.0605C16.7244 18.0584 16.7255 18.0565 16.7265 18.0546C16.7279 18.0521 16.729 18.0499 16.73 18.048L16.7304 18.0471C17.8458 16.2143 19.0639 14.4146 20.3514 12.6979L25.6234 5.66913C26.337 6.6846 26.7224 7.89614 26.7249 9.14008C26.7264 10.3578 26.357 11.5471 25.6658 12.5497L25.6657 12.5499L25.3857 12.9572C21.7625 18.2268 18.8978 23.9794 16.8757 30.0463L14.6855 36.617L10.2735 31.7148L11.7788 27.9517C11.7788 27.9517 11.7788 27.9517 11.7788 27.9517C13.1512 24.5242 14.8048 21.2161 16.7227 18.0613ZM27.596 27.9519L29.1013 31.7151L24.6892 36.6172L22.499 30.0463C21.9166 28.299 21.2547 26.556 20.5313 24.8592C21.3745 22.9347 22.3071 21.0534 23.329 19.2152C24.9723 22.0748 26.4708 25.1391 27.596 27.9519ZM24.0593 4.16152C24.2299 4.26994 24.394 4.38805 24.5509 4.51527L22.3945 7.39055C20.6284 6.88607 18.7554 6.89161 16.9923 7.4065L14.824 4.51545C16.125 3.54309 17.6883 2.98136 19.313 2.90436C20.9867 2.82504 22.6443 3.26406 24.0593 4.16152ZM19.6874 11L17.9998 8.74994C19.1147 8.51018 20.2675 8.50604 21.3841 8.73778L19.6874 11Z" fill="#067D7B" stroke="#067D7B" stroke-width="0.3"/>
</svg>
